<?xml version="1.0" encoding="UTF-8"?>
<svg width="872px" height="176px" viewBox="0 0 872 176" version="1.1" xmlns="http://www.w3.org/2000/svg" xmlns:xlink="http://www.w3.org/1999/xlink">
    <!-- Generator: Sketch 52.6 (67491) - http://www.bohemiancoding.com/sketch -->
    <title>deepcrawl-logo</title>
    <desc>Created with Sketch.</desc>
    <g id="Designs" stroke="none" stroke-width="1" fill="none" fill-rule="evenodd">
        <g id="Artboard" transform="translate(-599.000000, 0.000000)">
            <g id="deepcrawl-logo-reverse" transform="translate(590.000000, 0.000000)">
                <g id="deepcrawl-logo" transform="translate(9.000000, 0.000000)">
                    <polygon id="Path" fill="#7CA01B" points="0 43.7 76.1 0 152.8 43.7 152.2 132.2 76.1 175.8 0 132.2"></polygon>
                    <g id="Group">
                        <polygon id="Path" fill="#5F7E14" points="76.7 87.9 76.1 175.8 0 132.2 0 43.7"></polygon>
                        <g id="Path">
                            <polygon points="27.4 116 69.8 140.3 69.8 34.9 27.4 59.2"></polygon>
                            <polygon points="82.9 84.8 126 59.2 82.9 34.9"></polygon>
                            <polygon fill="#7C9F1B" points="138.4 51.8 126 59.2 82.9 84.8 82.9 140.3 137.8 109.1 137.8 123.5 76.1 159 76.1 175.8 152.2 132.2 152.8 43.7"></polygon>
                            <g>
                                <polygon points="69.8 140.3 69.8 84.2 27.4 59.9 27.4 116"></polygon>
                                <polygon fill="#85AD1D" points="69.8 34.9 27.4 59.2 26.8 59.2 69.8 84.2"></polygon>
                                <polygon fill="#85AD1D" points="76.1 16.2 138.4 51.8 152.8 43.7 76.1 0 0 43.7 14.3 52.4 14.3 51.8"></polygon>
                                <polygon fill="#85AD1D" points="82.9 84.8 126 59.2 82.9 34.9"></polygon>
                                <polygon fill="#FFFFFF" points="82.9 84.8 82.9 84.8 76.7 87.9"></polygon>
                                <polygon fill="#D9D9D9" points="69.8 140.3 26.8 116 26.8 59.2 14.3 52.4 14.3 123.5 76.1 159 76.1 159 76.7 87.9 69.8 84.2"></polygon>
                                <polygon fill="#F5F5F5" points="76.1 16.2 14.3 52.4 26.8 59.2 26.8 59.2 69.8 34.9 69.8 84.2 76.7 87.9 82.9 84.8 82.9 34.9 126 59.2 138.4 51.8"></polygon>
                            </g>
                            <polygon fill="#ECECEC" points="137.8 109.1 82.9 140.3 82.9 84.8 76.7 87.9 76.1 159 137.8 123.5"></polygon>
                        </g>
                    </g>
                    <g id="Group" transform="translate(170.000000, 43.000000)">
                        <path d="M68.2,75.5 C60.1,84.2 48.9,88.6 32.7,88.6 L0.3,88.6 L0.3,1.3 L32.7,1.3 C48.9,1.3 59.5,5 68.2,14.4 C75.7,22.5 80,33.7 80,45 C80.1,56.1 75.7,67.4 68.2,75.5 Z M52,20.6 C47.6,16.9 40.8,15.6 31.4,15.6 L18.3,15.6 L18.3,73.6 L31.4,73.6 C51.4,73.6 62.6,63 62.6,44.3 C62,34.3 58.2,25.6 52,20.6 Z" id="Shape" fill="#2C2C2C" fill-rule="nonzero"></path>
                        <polygon id="Path" fill="#2C2C2C" points="91.9 87.9 91.9 1.3 144.9 1.3 142.4 15.6 108.7 15.6 108.7 37.4 138.6 37.4 138.6 51.1 108.7 51.1 108.7 74.2 141.7 74.2 146.7 88.5 91.8 88.5 91.8 87.9"></polygon>
                        <polygon id="Path" fill="#2C2C2C" points="163 87.9 163 1.3 216 1.3 213.5 15.6 179.8 15.6 179.8 37.4 209.1 37.4 209.1 51.1 179.2 51.1 179.2 74.2 212.2 74.2 217.2 88.5 163 88.5"></polygon>
                        <path d="M285.2,51.2 C279,56.2 271.5,58.7 259.6,58.7 C256.5,58.7 254.6,58.7 251.5,58.1 L251.5,88 L234.7,88 L234.7,1.3 L264.6,1.3 C275.8,1.3 282.1,3.2 287.7,8.2 C292.7,13.2 295.2,19.4 295.2,27.5 C295.2,37.4 292.1,45.5 285.2,51.2 Z M263.4,15 L251.6,15 L251.6,44.3 L253.5,44.3 L255.4,44.3 C257.3,44.3 258.5,44.3 259.1,44.3 C272.2,44.3 277.8,39.3 277.8,28.7 C278.3,19.4 273.4,15 263.4,15 Z" id="Shape" fill="#2C2C2C" fill-rule="nonzero"></path>
                        <path d="M429.9,87.9 L409.9,53 L401.8,53 L401.8,87.9 L385,87.9 L385,1.3 L414.3,1.3 C426.8,1.3 433,3.2 438,7.5 C443,11.8 444.9,18.1 444.9,26.2 C444.9,33.1 443,38 439.9,42.4 C436.8,46.8 433.7,48.6 426.2,50.5 L448,88 L429.9,87.9 Z M412.4,15 L401.8,15 L401.8,39.3 L412.4,39.3 C423,39.3 427.4,35.6 427.4,26.8 C427.4,18.7 423,15 412.4,15 Z" id="Shape" fill="#7C9F1B" fill-rule="nonzero"></path>
                        <path d="M513.4,87.9 L506.5,66.1 L477.2,66.1 L470.3,87.9 L452.8,87.9 L484.6,0.6 L499.6,0.6 L531.4,87.9 L513.4,87.9 Z M491.6,21.2 L481.6,53 L501.6,53 L491.6,21.2 Z" id="Shape" fill="#7C9F1B" fill-rule="nonzero"></path>
                        <polygon id="Path" fill="#7C9F1B" points="605.1 89.8 593.3 89.8 580.2 52.4 567.1 89.8 556.5 89.8 523.5 1.3 541 1.3 563.4 66.8 574 37.5 559.7 1.3 574.7 1.3 581.6 18.8 587.2 1.3 601.5 1.3 588.4 36.2 600.9 66.1 621.5 1.2 637.1 1.2"></polygon>
                        <path d="M363.2,18.1 C358.8,15.6 355.1,15 347.6,15 C330.8,15 318.9,26.8 318.9,43.7 C318.9,62.4 331.4,74.9 350.1,74.9 C356.3,74.9 359.5,74.3 363.2,73 L372.6,84.8 C367,87.3 365.1,87.9 360.8,89.2 C356.4,89.8 352.1,90.4 347.1,90.4 C333.4,90.4 324,86.7 315.3,79.8 C305.9,71.7 300.3,58.6 300.3,44.9 C300.3,32.4 305.3,20.6 313.4,12.5 C322.1,3.8 332.1,0.7 346.4,0.7 C357.6,0.7 366.4,3.2 373.8,8.8 L363.2,18.1 Z" id="Path" fill="#7C9F1B"></path>
                        <polygon id="Path" fill="#7C9F1B" points="648.7 87.9 648.7 1.3 665.5 1.3 665.5 74.3 696.1 74.3 701.1 88.6 648.7 88.6"></polygon>
                    </g>
                </g>
            </g>
        </g>
    </g>
</svg>